<svg id="Layer_1" data-name="Layer 1" xmlns="http://www.w3.org/2000/svg" viewBox="0 0 500 500"><defs><style>.cls-1{fill:none;}.cls-2{fill:#4d4d4d;}.cls-3{fill:#333;}</style></defs><rect class="cls-1" x="382.4" y="382.34" width="29.4" height="29.4"/><rect class="cls-1" x="176.47" y="29.4" width="29.4" height="29.4"/><rect class="cls-1" x="147.07" y="29.4" width="29.4" height="29.4"/><rect class="cls-1" x="117.66" y="117.6" width="29.4" height="29.46"/><rect class="cls-1" x="88.26" y="58.8" width="29.4" height="29.4"/><rect class="cls-1" x="58.8" y="88.2" width="29.46" height="29.4"/><rect class="cls-1" x="29.4" y="176.47" width="29.4" height="29.4"/><rect class="cls-1" x="29.4" y="147.07" width="29.4" height="29.4"/><rect class="cls-2" x="470.6" y="323.53" width="29.4" height="29.4"/><rect class="cls-2" x="470.6" y="294.13" width="29.4" height="29.4"/><rect class="cls-2" x="470.6" y="264.67" width="29.4" height="29.46"/><rect class="cls-2" x="470.6" y="235.27" width="29.4" height="29.4"/><rect class="cls-2" x="470.6" y="205.87" width="29.4" height="29.4"/><rect class="cls-2" x="470.6" y="176.47" width="29.4" height="29.4"/><rect class="cls-2" x="470.6" y="147.07" width="29.4" height="29.4"/><rect class="cls-2" x="441.2" y="382.34" width="29.4" height="29.4"/><rect class="cls-2" x="441.2" y="352.93" width="29.4" height="29.4"/><rect class="cls-2" x="441.2" y="117.6" width="29.4" height="29.46"/><rect class="cls-2" x="441.2" y="88.2" width="29.4" height="29.4"/><rect class="cls-2" x="411.8" y="411.74" width="29.4" height="29.46"/><rect class="cls-2" x="411.8" y="58.8" width="29.4" height="29.4"/><rect class="cls-2" x="382.4" y="441.2" width="29.4" height="29.4"/><rect class="cls-2" x="382.4" y="29.4" width="29.4" height="29.4"/><rect class="cls-2" x="352.93" y="441.2" width="29.46" height="29.4"/><rect class="cls-2" x="352.93" y="29.4" width="29.46" height="29.4"/><rect class="cls-2" x="323.53" y="470.6" width="29.4" height="29.4"/><rect class="cls-2" x="323.53" width="29.4" height="29.4"/><rect class="cls-2" x="294.13" y="470.6" width="29.4" height="29.4"/><rect class="cls-2" x="294.13" width="29.4" height="29.4"/><rect class="cls-2" x="264.73" y="470.6" width="29.4" height="29.4"/><rect class="cls-2" x="264.73" width="29.4" height="29.4"/><rect class="cls-2" x="235.33" y="470.6" width="29.4" height="29.4"/><rect class="cls-2" x="235.33" width="29.4" height="29.4"/><rect class="cls-2" x="205.87" y="470.6" width="29.46" height="29.4"/><rect class="cls-2" x="205.87" width="29.46" height="29.4"/><rect class="cls-2" x="176.47" y="470.6" width="29.4" height="29.4"/><rect class="cls-2" x="176.47" width="29.4" height="29.4"/><rect class="cls-2" x="147.07" y="470.6" width="29.4" height="29.4"/><rect class="cls-2" x="147.07" width="29.4" height="29.4"/><rect class="cls-2" x="117.66" y="441.2" width="29.4" height="29.4"/><rect class="cls-2" x="117.66" y="29.4" width="29.4" height="29.4"/><rect class="cls-2" x="88.26" y="441.2" width="29.4" height="29.4"/><rect class="cls-2" x="88.26" y="29.4" width="29.4" height="29.4"/><rect class="cls-2" x="58.8" y="411.74" width="29.46" height="29.46"/><rect class="cls-2" x="58.8" y="58.8" width="29.46" height="29.4"/><rect class="cls-2" x="29.4" y="382.34" width="29.4" height="29.4"/><rect class="cls-2" x="29.4" y="352.93" width="29.4" height="29.4"/><rect class="cls-2" x="29.4" y="117.6" width="29.4" height="29.46"/><rect class="cls-2" x="29.4" y="88.2" width="29.4" height="29.4"/><rect class="cls-2" y="323.53" width="29.4" height="29.4"/><rect class="cls-2" y="294.13" width="29.4" height="29.4"/><rect class="cls-2" y="264.67" width="29.4" height="29.46"/><rect class="cls-2" y="235.27" width="29.4" height="29.4"/><rect class="cls-2" y="205.87" width="29.4" height="29.4"/><rect class="cls-2" y="176.47" width="29.4" height="29.4"/><rect class="cls-2" y="147.07" width="29.4" height="29.4"/><rect class="cls-3" x="441.2" y="323.53" width="29.4" height="29.4"/><rect class="cls-3" x="441.2" y="294.13" width="29.4" height="29.4"/><rect class="cls-3" x="441.2" y="264.67" width="29.4" height="29.46"/><rect class="cls-3" x="441.2" y="235.27" width="29.4" height="29.4"/><rect class="cls-3" x="441.2" y="205.87" width="29.4" height="29.4"/><rect class="cls-3" x="441.2" y="176.47" width="29.4" height="29.4"/><rect class="cls-3" x="441.2" y="147.07" width="29.4" height="29.4"/><rect class="cls-3" x="411.8" y="382.34" width="29.4" height="29.4"/><rect class="cls-3" x="411.8" y="352.93" width="29.4" height="29.4"/><rect class="cls-3" x="411.8" y="323.53" width="29.4" height="29.4"/><rect class="cls-3" x="411.8" y="294.13" width="29.4" height="29.4"/><rect class="cls-3" x="411.8" y="264.67" width="29.4" height="29.46"/><rect class="cls-3" x="411.8" y="235.27" width="29.4" height="29.4"/><rect class="cls-3" x="411.8" y="205.87" width="29.4" height="29.4"/><rect class="cls-3" x="411.8" y="176.47" width="29.4" height="29.4"/><rect class="cls-3" x="411.8" y="147.07" width="29.4" height="29.4"/><rect class="cls-3" x="411.8" y="117.6" width="29.4" height="29.46"/><rect class="cls-3" x="411.8" y="88.2" width="29.4" height="29.4"/><rect class="cls-3" x="382.4" y="411.74" width="29.4" height="29.46"/><rect class="cls-3" x="382.4" y="352.93" width="29.4" height="29.4"/><rect class="cls-3" x="382.4" y="323.53" width="29.4" height="29.4"/><rect class="cls-3" x="382.4" y="294.13" width="29.4" height="29.4"/><rect class="cls-3" x="382.4" y="264.67" width="29.4" height="29.46"/><rect class="cls-3" x="382.4" y="235.27" width="29.4" height="29.4"/><rect class="cls-3" x="382.4" y="205.87" width="29.4" height="29.4"/><rect class="cls-3" x="382.4" y="176.47" width="29.4" height="29.4"/><rect class="cls-3" x="382.4" y="147.07" width="29.4" height="29.4"/><rect class="cls-3" x="382.4" y="117.6" width="29.4" height="29.46"/><rect class="cls-3" x="382.4" y="88.2" width="29.4" height="29.4"/><rect class="cls-3" x="382.4" y="58.8" width="29.4" height="29.4"/><rect class="cls-3" x="352.93" y="411.74" width="29.46" height="29.46"/><rect class="cls-3" x="352.93" y="382.34" width="29.46" height="29.4"/><rect class="cls-3" x="352.94" y="352.94" width="29.46" height="29.4"/><rect class="cls-3" x="352.94" y="323.54" width="29.46" height="29.4"/><rect class="cls-3" x="352.94" y="294.14" width="29.46" height="29.4"/><rect class="cls-3" x="352.93" y="264.67" width="29.46" height="29.46"/><rect class="cls-3" x="352.93" y="235.27" width="29.46" height="29.4"/><rect class="cls-3" x="352.93" y="205.87" width="29.46" height="29.4"/><rect class="cls-3" x="352.94" y="176.47" width="29.46" height="29.4"/><rect class="cls-3" x="352.93" y="147.07" width="29.46" height="29.4"/><rect class="cls-3" x="352.93" y="117.6" width="29.46" height="29.46"/><rect class="cls-3" x="352.93" y="88.2" width="29.46" height="29.4"/><rect class="cls-3" x="352.93" y="58.8" width="29.46" height="29.4"/><rect class="cls-3" x="323.53" y="441.2" width="29.4" height="29.4"/><rect class="cls-3" x="323.53" y="411.74" width="29.4" height="29.46"/><rect class="cls-3" x="323.54" y="382.34" width="29.4" height="29.4"/><rect class="cls-3" x="323.54" y="264.68" width="29.4" height="29.46"/><rect class="cls-3" x="323.53" y="235.27" width="29.4" height="29.4"/><rect class="cls-3" x="323.54" y="205.87" width="29.4" height="29.4"/><rect class="cls-3" x="323.54" y="147.07" width="29.4" height="29.4"/><rect class="cls-3" x="323.53" y="117.6" width="29.4" height="29.46"/><rect class="cls-3" x="323.53" y="88.2" width="29.4" height="29.4"/><rect class="cls-3" x="323.53" y="58.8" width="29.4" height="29.4"/><rect class="cls-3" x="323.53" y="29.4" width="29.4" height="29.4"/><rect class="cls-3" x="294.13" y="441.2" width="29.4" height="29.4"/><rect class="cls-3" x="294.14" y="411.74" width="29.4" height="29.46"/><rect class="cls-3" x="294.14" y="352.94" width="29.4" height="29.4"/><rect class="cls-3" x="294.14" y="323.54" width="29.4" height="29.4"/><rect class="cls-3" x="323.54" y="294.14" width="29.4" height="88.2"/><rect class="cls-3" x="294.14" y="294.14" width="29.4" height="29.4"/><rect class="cls-3" x="294.14" y="235.27" width="29.4" height="29.4"/><rect class="cls-3" x="294.13" y="205.87" width="29.4" height="29.4"/><rect class="cls-3" x="294.14" y="176.47" width="29.4" height="29.4"/><rect class="cls-3" x="294.14" y="117.61" width="29.4" height="29.46"/><rect class="cls-3" x="294.13" y="88.2" width="29.4" height="29.4"/><rect class="cls-3" x="294.13" y="58.8" width="29.4" height="29.4"/><rect class="cls-3" x="294.13" y="29.4" width="29.4" height="29.4"/><rect class="cls-3" x="264.73" y="441.2" width="29.4" height="29.4"/><rect class="cls-3" x="264.74" y="411.74" width="29.4" height="29.46"/><rect class="cls-3" x="264.74" y="352.94" width="29.4" height="29.4"/><rect class="cls-3" x="264.73" y="323.53" width="29.4" height="29.4"/><rect class="cls-3" x="264.74" y="294.14" width="29.4" height="29.4"/><rect class="cls-3" x="264.74" y="235.27" width="29.4" height="29.4"/><rect class="cls-3" x="264.73" y="205.87" width="29.4" height="29.4"/><rect class="cls-3" x="264.73" y="176.47" width="29.4" height="29.4"/><rect class="cls-3" x="264.74" y="147.07" width="29.4" height="29.4"/><rect class="cls-3" x="264.73" y="117.6" width="29.4" height="29.46"/><rect class="cls-3" x="264.73" y="88.2" width="29.4" height="29.4"/><rect class="cls-3" x="264.73" y="58.8" width="29.4" height="29.4"/><rect class="cls-3" x="264.73" y="29.4" width="29.4" height="29.4"/><rect class="cls-3" x="235.33" y="441.2" width="29.4" height="29.4"/><rect class="cls-3" x="235.33" y="352.94" width="29.4" height="29.4"/><rect class="cls-3" x="235.33" y="323.53" width="29.4" height="29.4"/><rect class="cls-3" x="235.33" y="294.13" width="29.4" height="29.4"/><rect class="cls-3" x="235.33" y="264.68" width="29.4" height="29.46"/><rect class="cls-3" x="235.33" y="235.27" width="29.4" height="29.4"/><rect class="cls-3" x="235.33" y="205.87" width="29.4" height="29.4"/><rect class="cls-3" x="235.33" y="176.47" width="29.4" height="29.4"/><rect class="cls-3" x="235.33" y="147.07" width="29.4" height="29.4"/><rect class="cls-3" x="235.33" y="117.6" width="29.4" height="29.46"/><rect class="cls-3" x="235.33" y="88.2" width="29.4" height="29.4"/><rect class="cls-3" x="235.33" y="58.8" width="29.4" height="29.4"/><rect class="cls-3" x="235.33" y="29.4" width="29.4" height="29.4"/><rect class="cls-3" x="205.87" y="441.2" width="29.46" height="29.4"/><rect class="cls-3" x="205.87" y="411.74" width="29.46" height="29.46"/><rect class="cls-3" x="205.87" y="352.94" width="29.46" height="29.4"/><rect class="cls-3" x="205.87" y="323.53" width="29.46" height="29.4"/><rect class="cls-3" x="205.87" y="294.14" width="29.46" height="29.4"/><rect class="cls-3" x="205.87" y="235.27" width="29.46" height="29.4"/><rect class="cls-3" x="205.87" y="205.87" width="29.46" height="29.4"/><rect class="cls-3" x="205.87" y="176.47" width="29.46" height="29.4"/><rect class="cls-3" x="205.87" y="147.07" width="29.46" height="29.4"/><rect class="cls-3" x="205.87" y="117.6" width="29.46" height="29.46"/><rect class="cls-3" x="205.87" y="88.2" width="29.46" height="29.4"/><rect class="cls-3" x="205.87" y="58.8" width="29.46" height="29.4"/><rect class="cls-3" x="205.87" y="29.4" width="29.46" height="29.4"/><rect class="cls-3" x="176.47" y="441.2" width="29.4" height="29.4"/><rect class="cls-3" x="176.47" y="411.74" width="29.4" height="29.46"/><rect class="cls-3" x="176.47" y="352.94" width="29.4" height="29.4"/><rect class="cls-3" x="176.47" y="323.53" width="29.4" height="29.4"/><rect class="cls-3" x="176.47" y="294.14" width="29.4" height="29.4"/><rect class="cls-3" x="176.47" y="235.27" width="29.4" height="29.4"/><rect class="cls-3" x="176.47" y="205.87" width="29.4" height="29.4"/><rect class="cls-3" x="176.47" y="176.47" width="29.4" height="29.4"/><rect class="cls-3" x="176.47" y="117.61" width="29.4" height="29.46"/><rect class="cls-3" x="176.47" y="88.2" width="29.4" height="29.4"/><rect class="cls-3" x="176.47" y="58.8" width="29.4" height="29.4"/><rect class="cls-3" x="147.07" y="441.2" width="29.4" height="29.4"/><rect class="cls-3" x="147.07" y="411.74" width="29.4" height="29.46"/><polygon class="cls-3" points="323.54 382.34 323.54 411.74 264.74 411.74 264.74 441.2 235.33 441.2 235.33 411.74 176.47 411.74 176.47 382.34 323.54 382.34"/><rect class="cls-3" x="147.07" y="382.34" width="29.4" height="29.4"/><rect class="cls-3" x="147.07" y="323.54" width="29.4" height="29.4"/><rect class="cls-3" x="147.07" y="294.13" width="29.4" height="29.4"/><rect class="cls-3" x="147.07" y="264.68" width="29.4" height="29.46"/><rect class="cls-3" x="147.07" y="147.07" width="29.4" height="29.4"/><rect class="cls-3" x="147.07" y="117.6" width="29.4" height="29.46"/><rect class="cls-3" x="147.07" y="88.2" width="29.4" height="29.4"/><rect class="cls-3" x="147.07" y="58.8" width="29.4" height="29.4"/><rect class="cls-3" x="117.66" y="411.74" width="29.4" height="29.46"/><rect class="cls-3" x="117.66" y="382.34" width="29.4" height="29.4"/><rect class="cls-3" x="147.07" y="352.94" width="29.4" height="29.4"/><rect class="cls-3" x="117.67" y="352.94" width="29.4" height="29.4"/><rect class="cls-3" x="117.66" y="323.53" width="29.4" height="29.4"/><rect class="cls-3" x="117.66" y="294.13" width="29.4" height="29.4"/><rect class="cls-3" x="117.66" y="264.67" width="29.4" height="29.46"/><rect class="cls-3" x="117.67" y="235.27" width="29.4" height="29.4"/><rect class="cls-3" x="117.67" y="205.87" width="29.4" height="29.4"/><rect class="cls-3" x="117.67" y="176.47" width="29.4" height="29.4"/><rect class="cls-3" x="117.66" y="147.07" width="29.4" height="29.4"/><rect class="cls-3" x="117.66" y="88.2" width="29.4" height="29.4"/><rect class="cls-3" x="117.66" y="58.8" width="29.4" height="29.4"/><rect class="cls-3" x="88.26" y="411.74" width="29.4" height="29.46"/><rect class="cls-3" x="88.26" y="382.34" width="29.4" height="29.4"/><rect class="cls-3" x="88.26" y="352.93" width="29.4" height="29.4"/><rect class="cls-3" x="88.26" y="323.53" width="29.4" height="29.4"/><rect class="cls-3" x="88.26" y="294.13" width="29.4" height="29.4"/><rect class="cls-3" x="88.26" y="264.67" width="29.4" height="29.46"/><rect class="cls-3" x="88.26" y="235.27" width="29.4" height="29.4"/><rect class="cls-3" x="88.26" y="205.87" width="29.4" height="29.4"/><rect class="cls-3" x="88.26" y="176.47" width="29.4" height="29.4"/><rect class="cls-3" x="88.26" y="147.07" width="29.4" height="29.4"/><rect class="cls-3" x="88.26" y="117.6" width="29.4" height="29.46"/><rect class="cls-3" x="88.26" y="88.2" width="29.4" height="29.4"/><rect class="cls-3" x="58.8" y="382.34" width="29.46" height="29.4"/><rect class="cls-3" x="58.8" y="352.93" width="29.46" height="29.4"/><rect class="cls-3" x="58.8" y="323.53" width="29.46" height="29.4"/><rect class="cls-3" x="58.8" y="294.13" width="29.46" height="29.4"/><rect class="cls-3" x="58.8" y="264.67" width="29.46" height="29.46"/><rect class="cls-3" x="58.8" y="235.27" width="29.46" height="29.4"/><rect class="cls-3" x="58.8" y="205.87" width="29.46" height="29.4"/><rect class="cls-3" x="58.8" y="176.47" width="29.46" height="29.4"/><rect class="cls-3" x="58.8" y="147.07" width="29.46" height="29.4"/><rect class="cls-3" x="58.8" y="117.6" width="29.46" height="29.46"/><rect class="cls-3" x="29.4" y="323.53" width="29.4" height="29.4"/><rect class="cls-3" x="29.4" y="294.13" width="29.4" height="29.4"/><rect class="cls-3" x="29.4" y="264.67" width="29.4" height="29.46"/><rect class="cls-3" x="29.4" y="235.27" width="29.4" height="29.4"/><rect class="cls-3" x="29.4" y="205.87" width="29.4" height="29.4"/><rect class="cls-3" x="294.14" y="147.07" width="29.4" height="29.4"/><rect class="cls-3" x="323.54" y="176.47" width="29.4" height="29.4"/><rect class="cls-3" x="294.14" y="176.47" width="29.4" height="29.4"/><rect class="cls-3" x="264.76" y="323.53" width="29.4" height="29.4"/><rect class="cls-3" x="264.74" y="264.68" width="58.8" height="29.46"/><rect class="cls-3" x="264.74" y="235.27" width="29.4" height="29.4"/><rect class="cls-3" x="205.96" y="323.53" width="29.4" height="29.4"/><rect class="cls-3" x="205.93" y="235.27" width="29.4" height="29.4"/><rect class="cls-3" x="176.47" y="264.68" width="58.86" height="29.46"/><rect class="cls-3" x="176.47" y="294.14" width="29.46" height="29.4"/><rect class="cls-3" x="176.47" y="205.87" width="29.46" height="29.4"/><rect class="cls-3" x="176.47" y="147.07" width="29.4" height="29.4"/><rect class="cls-3" x="147.07" y="176.47" width="29.4" height="88.2"/><rect class="cls-3" x="176.47" y="176.47" width="29.46" height="29.4"/><rect class="cls-2" x="323.53" y="323.53" width="29.4" height="29.4"/><rect class="cls-2" x="323.53" y="294.13" width="29.4" height="29.4"/><rect class="cls-2" x="323.53" y="264.73" width="29.4" height="29.4"/><rect class="cls-2" x="323.53" y="147.07" width="29.4" height="29.4"/><rect class="cls-2" x="294.13" y="352.93" width="29.4" height="29.4"/><rect class="cls-2" x="294.13" y="235.27" width="29.4" height="29.46"/><rect class="cls-2" x="294.13" y="117.66" width="29.4" height="29.4"/><rect class="cls-2" x="264.73" y="352.93" width="29.4" height="29.4"/><rect class="cls-2" x="264.73" y="235.27" width="29.4" height="29.46"/><rect class="cls-2" x="235.33" y="382.34" width="29.4" height="29.46"/><rect class="cls-2" x="235.33" y="352.93" width="29.4" height="29.4"/><rect class="cls-2" x="205.87" y="352.93" width="29.46" height="29.4"/><rect class="cls-2" x="205.87" y="235.27" width="29.46" height="29.46"/><rect class="cls-2" x="176.47" y="352.93" width="29.4" height="29.4"/><rect class="cls-2" x="176.47" y="235.27" width="29.4" height="29.46"/><rect class="cls-2" x="176.56" y="117.66" width="29.4" height="29.4"/><rect class="cls-2" x="147.07" y="323.53" width="29.4" height="29.4"/><rect class="cls-2" x="147.07" y="205.87" width="29.4" height="29.4"/><rect class="cls-2" x="147.07" y="176.47" width="29.4" height="29.4"/><rect class="cls-2" x="147.07" y="147.07" width="29.4" height="29.4"/><rect class="cls-2" x="264.76" y="117.66" width="29.4" height="29.4"/><rect class="cls-2" x="235.36" y="323.53" width="29.4" height="29.4"/><rect class="cls-2" x="235.36" y="294.13" width="29.4" height="29.4"/><rect class="cls-2" x="235.36" y="264.73" width="29.4" height="29.4"/><rect class="cls-2" x="235.36" y="235.27" width="29.4" height="29.46"/><rect class="cls-2" x="235.36" y="205.87" width="29.4" height="29.4"/><rect class="cls-2" x="235.36" y="176.47" width="29.4" height="29.4"/><rect class="cls-2" x="235.36" y="147.07" width="29.4" height="29.4"/><rect class="cls-2" x="235.36" y="117.66" width="29.4" height="29.4"/><rect class="cls-2" x="235.36" y="88.2" width="29.4" height="29.46"/><rect class="cls-2" x="205.96" y="117.66" width="29.4" height="29.4"/></svg>